<?xml version="1.0" encoding="UTF-8"?>
<svg version="1.1" xmlns="http://www.w3.org/2000/svg" width="294" height="65">
<path d="M0 0 C4.62 0 9.24 0 14 0 C19.88760808 10.18288579 25.50953652 20.4736351 31 30.875 C31.78234291 32.35297533 32.56489402 33.83084046 33.34765625 35.30859375 C35.2341613 38.87113655 37.11788516 42.43513602 39 46 C41.89964127 42.44501482 43.94999361 38.50489898 46.0546875 34.453125 C46.4381131 33.72309265 46.8215387 32.9930603 47.21658325 32.24090576 C48.4393897 29.91233339 49.65769002 27.58144993 50.875 25.25 C52.08528944 22.93289772 53.29669094 20.61641826 54.51199341 18.30194092 C55.26631189 16.86537851 56.01787393 15.42736382 56.76608276 13.98760986 C57.46807075 12.65063404 58.1890945 11.32346449 58.92962646 10.00744629 C60.05436886 7.9931196 60.05436886 7.9931196 60.88922119 5.71813965 C61.89501953 3.49511719 61.89501953 3.49511719 65 0 C69.62 0 74.24 0 79 0 C79 21.45 79 42.9 79 65 C74.38 65 69.76 65 65 65 C64.67 53.78 64.34 42.56 64 31 C58.39 42.22 52.78 53.44 47 65 C42.05 65 37.1 65 32 65 C26.39 53.78 20.78 42.56 15 31 C14.67 42.22 14.34 53.44 14 65 C9.38 65 4.76 65 0 65 C0 43.55 0 22.1 0 0 Z " fill="#000000" transform="translate(143,0)"/>
<path d="M0 0 C8.30816527 4.97609192 14.20428412 12.0820277 17.2109375 21.32421875 C18.50429181 33.3747988 17.19853376 42.64781329 9.53515625 52.47265625 C3.98159106 58.52412729 -2.93608662 61.97594636 -11.109375 62.5625 C-22.964412 62.79375842 -31.00900136 60.8792324 -39.80859375 52.546875 C-46.96361672 44.51687881 -48.27629986 36.64003372 -48.0625 26.15625 C-47.4168203 17.10751019 -43.43734659 10.37914685 -36.7890625 4.32421875 C-26.23232641 -3.70053421 -12.21627766 -5.78345371 0 0 Z M-30.125 17.47265625 C-33.61422254 21.35503063 -34.44440639 25.15437711 -34.7890625 30.32421875 C-33.89970249 37.32792882 -31.03261588 41.61165811 -25.7890625 46.32421875 C-21.29650925 48.97051724 -16.64229474 49.73602547 -11.515625 48.99609375 C-5.17258458 47.30750279 -1.16187952 43.92974563 2.2109375 38.32421875 C4.54612235 32.53742601 4.79468903 27.24520937 2.4453125 21.43359375 C-0.71067819 16.0404451 -5.25708045 12.41059966 -11.2890625 10.76171875 C-19.37282386 9.54152836 -24.19391632 12.10868814 -30.125 17.47265625 Z " fill="#000000" transform="translate(276.7890625,2.67578125)"/>
<path d="M0 0 C8.75979306 5.24658984 14.4766754 12.47847673 17.2109375 22.32421875 C18.28991867 33.61588211 17.19914541 42.72560695 9.9609375 51.63671875 C4.12599913 57.82150353 -2.74503136 61.84223355 -11.3046875 62.66015625 C-22.63904724 62.7787165 -30.65979735 61.15160123 -39.03515625 53.25 C-46.4253676 45.13558086 -48.27796709 36.91519465 -48.09765625 26.0859375 C-47.35814386 17.07137512 -43.4253294 10.3682022 -36.7890625 4.32421875 C-26.23232641 -3.70053421 -12.21627766 -5.78345371 0 0 Z M-27.84375 14.95703125 C-32.52421839 19.75402582 -34.70549204 24.59679687 -34.7890625 31.32421875 C-34.1470228 36.78155623 -32.09560503 40.45598558 -28.1640625 44.26171875 C-23.3747559 48.03351699 -18.80521807 49.50642619 -12.72265625 49.23046875 C-6.86353552 48.22146166 -2.69007442 44.66478131 1.2109375 40.32421875 C4.04371511 35.46534854 4.41595933 30.93876566 3.7109375 25.38671875 C2.14708076 19.89179747 -1.87704695 15.03951558 -6.78515625 12.1484375 C-14.17124274 9.11049549 -21.59268119 9.98945185 -27.84375 14.95703125 Z " fill="#000000" transform="translate(118.7890625,2.67578125)"/>
<path d="M0 0 C21.45 0 42.9 0 65 0 C65 4.29 65 8.58 65 13 C47.84 13 30.68 13 13 13 C13 30.16 13 47.32 13 65 C8.71 65 4.42 65 0 65 C0 43.55 0 22.1 0 0 Z " fill="#000000" transform="translate(0,0)"/>
<path d="M0 0 C11.88 0 23.76 0 36 0 C36 4.29 36 8.58 36 13 C24.12 13 12.24 13 0 13 C0 8.71 0 4.42 0 0 Z " fill="#000000" transform="translate(29,26)"/>
</svg>
