<?xml version="1.0" encoding="UTF-8"?>
<svg version="1.1" xmlns="http://www.w3.org/2000/svg" width="512" height="512">
<path d="M0 0 C42.24 0 84.48 0 128 0 C128.16121214 33.0305756 128.16121214 33.0305756 128.1953125 46.88671875 C128.21903426 56.4488179 128.24690034 66.01077591 128.30175781 75.57275391 C128.34169366 82.53714005 128.36744891 89.50141154 128.37635398 96.465909 C128.38155738 100.15178437 128.39374044 103.8373318 128.42292023 107.52310181 C128.45527197 111.64315179 128.4559551 115.76263583 128.45410156 119.8828125 C128.46848267 121.09769852 128.48286377 122.31258453 128.49768066 123.56428528 C128.4638303 130.5211865 127.79861441 135.10879058 124 141 C119.84026966 144.61715681 117.38712734 145.18007111 112 145 C112.01571045 145.59425781 112.0314209 146.18851563 112.04760742 146.80078125 C112.11056569 149.53375454 112.14918095 152.26657455 112.1875 155 C112.21263672 155.93457031 112.23777344 156.86914062 112.26367188 157.83203125 C112.33053617 164.20642768 112.07860672 170.52813663 107.61816406 175.55834961 C102.64518197 179.96707149 98.66630887 180.12492577 92.23120117 180.16113281 C91.55911118 180.16609772 90.88702118 180.17106262 90.19456482 180.17617798 C87.9773556 180.19074866 85.76021793 180.19759326 83.54296875 180.203125 C81.99603779 180.2088809 80.44910685 180.21463857 78.9021759 180.22039795 C75.65995961 180.23089362 72.417768 180.23674558 69.17553711 180.24023438 C65.03297086 180.24571436 60.89073406 180.26973763 56.74827099 180.29820633 C53.55254684 180.3168847 50.35690121 180.32204108 47.16112709 180.32357025 C45.63458773 180.32658588 44.1080494 180.33457741 42.58156395 180.34775543 C40.43978609 180.36492467 38.2988023 180.36290977 36.15698242 180.35644531 C34.94104904 180.36009094 33.72511566 180.36373657 32.47233582 180.36749268 C27.32144906 179.82235152 23.37816794 178.41541572 19.6875 174.625 C16.91350526 170.30989706 15.74461923 166.83505575 15.8046875 161.69921875 C15.81435547 160.23452148 15.81435547 160.23452148 15.82421875 158.74023438 C15.84935547 157.22913086 15.84935547 157.22913086 15.875 155.6875 C15.88402344 154.66076172 15.89304688 153.63402344 15.90234375 152.57617188 C15.92583799 150.05054101 15.95868869 147.5253919 16 145 C14.61167969 145.04640625 14.61167969 145.04640625 13.1953125 145.09375 C8.90375239 144.96783626 7.22746656 143.80649266 4 141 C-0.50019111 134.02072668 -0.55072373 128.04525463 -0.45410156 119.8828125 C-0.45468567 118.5844194 -0.45526978 117.28602631 -0.45587158 115.94828796 C-0.45701339 112.40939318 -0.43359175 108.87104712 -0.40557575 105.33227921 C-0.3804723 101.62608922 -0.37821309 97.91988493 -0.37347412 94.21362305 C-0.36107047 87.20494899 -0.32828459 80.19652623 -0.28807616 73.18796253 C-0.23489058 63.71050576 -0.21339186 54.23297965 -0.19006729 44.75541115 C-0.15252096 29.83675275 -0.07281324 14.9186245 0 0 Z " fill="#000000" transform="translate(192,126)"/>
<path d="M0 0 C13.49230281 11.50163519 21.60536372 25.62709687 24.625 43.125 C24.73320003 44.89522613 24.8014451 46.66821194 24.8359375 48.44140625 C25.28449621 65.77826981 26.29250614 83.13722804 38.8828125 96.54296875 C49.30693524 106.00882012 61.43126795 111.32889009 75.5 111.25 C76.18191406 111.25386719 76.86382812 111.25773437 77.56640625 111.26171875 C82.01555248 111.25324419 86.23458055 110.84718388 90.625 110.125 C82.72882043 127.53248678 69.87555204 142.6455334 51.71337891 149.88720703 C44.08397909 152.70761548 36.56054683 155.21210789 28.37011719 155.30200195 C27.344245 155.31483719 26.3183728 155.32767242 25.26141357 155.34089661 C24.15936584 155.34828354 23.05731812 155.35567047 21.921875 155.36328125 C20.77068176 155.371353 19.61948853 155.37942474 18.43341064 155.38774109 C15.99240617 155.40156521 13.55138249 155.41229483 11.11035156 155.42016602 C8.64154297 155.43162258 6.17275788 155.45197232 3.70410156 155.48168945 C-28.76612475 155.87218734 -56.20818122 148.15928071 -80 125 C-98.90445208 105.95258721 -108.50399224 81.1519592 -108.625 54.5 C-108.645625 53.38753906 -108.66625 52.27507812 -108.6875 51.12890625 C-108.73680407 40.54085648 -106.94729098 30.80096361 -101.75 21.5 C-101.40517578 20.87029297 -101.06035156 20.24058594 -100.70507812 19.59179688 C-97.35451828 13.70275184 -93.22805251 8.84829175 -88.375 4.125 C-87.49134766 3.19300781 -87.49134766 3.19300781 -86.58984375 2.2421875 C-63.49288435 -20.39790897 -24.5575393 -18.84123612 0 0 Z " fill="#000000" transform="translate(108.375,356.875)"/>
<path d="M0 0 C9.78405064 7.56510961 17.47008651 16.33542346 22.8125 27.5 C23.24816284 28.40733887 23.24816284 28.40733887 23.69262695 29.33300781 C31.94453453 47.52764783 29.91264151 71.71709622 23.22021484 90.14746094 C13.13180811 116.257936 -5.23895843 136.97983541 -30.375 149.3125 C-43.8152787 155.1749264 -57.23912062 158.14030331 -71.87109375 158.23828125 C-73.02561539 158.246353 -74.18013702 158.25442474 -75.36964417 158.26274109 C-77.81306472 158.27655026 -80.2565043 158.28728652 -82.69995117 158.29516602 C-85.17559543 158.30664755 -87.65121568 158.32703792 -90.12670898 158.35668945 C-116.72681193 158.67494481 -116.72681193 158.67494481 -129 154 C-130.12136353 153.58415649 -130.12136353 153.58415649 -131.26538086 153.15991211 C-147.46288626 146.5489006 -161.05737083 133.49463722 -169 118 C-169.68859443 116.34227266 -170.36158627 114.6776919 -171 113 C-170.00226563 113.15855469 -169.00453125 113.31710937 -167.9765625 113.48046875 C-150.16007487 115.99947491 -136.42744155 112.06642933 -121.8125 101.75 C-110.58182934 90.7688998 -106.08631115 77.08969236 -105.76098633 61.70019531 C-105.25845309 40.24319455 -100.19729746 22.59198299 -84.91015625 6.84765625 C-61.95155325 -14.78241999 -26.13452132 -17.60744213 0 0 Z " fill="#000000" transform="translate(484,354)"/>
<path d="M0 0 C14.52 0 29.04 0 44 0 C44.0093457 3.38942871 44.01869141 6.77885742 44.02832031 10.27099609 C44.06224603 21.53070198 44.11768415 32.79023555 44.18390274 44.04979515 C44.22349443 50.86946311 44.25598665 57.68901901 44.27099609 64.50878906 C44.28553022 71.10310118 44.32086655 77.6971205 44.36830902 84.29127884 C44.38302685 86.7939309 44.39103543 89.29663265 44.39188385 91.79932785 C44.41338026 123.44486445 51.60209311 149.65106178 72.91015625 173.5859375 C75 176 75 176 75 177 C40.02 177 5.04 177 -31 177 C-25 169 -25 169 -22.7265625 166.15625 C-8.41658459 148.06928907 -0.72923613 126.25025208 -0.68115234 103.19458008 C-0.67110672 102.07131317 -0.6610611 100.94804626 -0.65071106 99.79074097 C-0.62008106 96.1170091 -0.6029003 92.44334942 -0.5859375 88.76953125 C-0.56720961 86.20691821 -0.54763501 83.64431123 -0.5272522 81.08171082 C-0.48131108 75.05076198 -0.44384207 69.01981933 -0.41057932 62.98879212 C-0.37219129 56.11557603 -0.3228256 49.24245199 -0.27259517 42.36931384 C-0.16962378 28.24627092 -0.08170024 14.12318117 0 0 Z " fill="#000000" transform="translate(234,335)"/>
<path d="M0 0 C4.82882559 2.42021667 8.88463811 5.55172298 13 9 C13.51594727 9.42249023 14.03189453 9.84498047 14.56347656 10.28027344 C37.69582537 29.44707674 53.18142203 58.23755402 57 88 C57 90.97 57 93.94 57 97 C15.42 97 -26.16 97 -69 97 C-69 86.84806974 -69 86.84806974 -68.3359375 83.52734375 C-68.18680908 82.78137939 -68.03768066 82.03541504 -67.8840332 81.2668457 C-67.71605225 80.49816162 -67.54807129 79.72947754 -67.375 78.9375 C-67.19606201 78.11531982 -67.01712402 77.29313965 -66.83276367 76.44604492 C-59.73647306 45.40613352 -40.55954744 19.15920401 -14.42578125 1.234375 C-9.68230784 -1.17937314 -5.14590499 -1.02554003 0 0 Z " fill="#000000" transform="translate(262,0)"/>
<path d="M0 0 C18.02818885 11.9480576 29.73308083 29.20392342 34.05555725 50.46932983 C35.60354641 59.24599987 35.44738162 68.14417051 35.39111328 77.02807617 C35.37486023 80.08882063 35.39113201 83.1482769 35.41015625 86.20898438 C35.40817647 88.17187789 35.4043383 90.13477061 35.3984375 92.09765625 C35.40754654 93.45710106 35.40754654 93.45710106 35.4168396 94.8440094 C35.35988638 99.97571275 34.87057223 103.56642733 32 108 C27.34114398 112.20433348 24.89319293 113.12564501 18.6796875 113.09765625 C17.42285156 113.09443359 16.16601562 113.09121094 14.87109375 113.08789062 C13.55238281 113.07951172 12.23367188 113.07113281 10.875 113.0625 C9.53515789 113.05748489 8.195314 113.05292201 6.85546875 113.04882812 C3.57026794 113.03701086 0.28515603 113.02053617 -3 113 C-2.85932413 112.32905398 -2.71864826 111.65810797 -2.57370949 110.96683025 C-1.27125818 104.37303506 -0.69701077 98.0994937 -0.68115234 91.38793945 C-0.66608391 89.89323372 -0.66608391 89.89323372 -0.65071106 88.36833191 C-0.62013656 85.11665355 -0.60291618 81.8650565 -0.5859375 78.61328125 C-0.56720511 76.34213066 -0.54763018 74.07098688 -0.5272522 71.79985046 C-0.47614381 65.85372957 -0.43640463 59.90758617 -0.39910889 53.96136475 C-0.35893511 47.88108855 -0.30790405 41.80090427 -0.2578125 35.72070312 C-0.1613056 23.81386686 -0.07682076 11.90697843 0 0 Z " fill="#000000" transform="translate(349,158)"/>
<path d="M0 0 C0.00808685 1.25343704 0.01617371 2.50687408 0.02450562 3.79829407 C0.10216915 15.64145291 0.18995879 27.48449972 0.28752708 39.32751179 C0.33735969 45.41533973 0.38369054 51.50315142 0.421875 57.59106445 C0.45889286 63.47205868 0.50529681 69.35291237 0.55806351 75.23378563 C0.57652007 77.47149362 0.59165985 79.70923164 0.60334396 81.94698524 C0.62035674 85.09411472 0.64942668 88.24092843 0.68115234 91.38793945 C0.68331253 92.30216675 0.68547272 93.21639404 0.68769836 94.1583252 C0.77010405 100.60526013 1.67777527 106.69372002 3 113 C-1.54144994 113.11647041 -6.08251394 113.18734502 -10.625 113.25 C-11.91019531 113.28351563 -13.19539063 113.31703125 -14.51953125 113.3515625 C-26.31123871 113.47375636 -26.31123871 113.47375636 -31 109 C-34.11152629 105.45929767 -35.11846011 102.43831862 -35.16113281 97.76660156 C-35.17074036 96.91430969 -35.1803479 96.06201782 -35.19024658 95.18389893 C-35.19449646 94.26211853 -35.19874634 93.34033813 -35.203125 92.390625 C-35.20882507 91.43162292 -35.21452515 90.47262085 -35.22039795 89.48455811 C-35.22985387 87.44691063 -35.23638427 85.40924781 -35.24023438 83.37158203 C-35.24983287 80.3034237 -35.28080478 77.23596674 -35.3125 74.16796875 C-35.38954707 60.18851343 -34.84514353 46.65310563 -28.8125 33.75 C-28.51206787 33.08798584 -28.21163574 32.42597168 -27.90209961 31.74389648 C-25.00389181 25.59480471 -21.33127862 20.23743864 -17 15 C-16.33871094 14.18789062 -15.67742187 13.37578125 -14.99609375 12.5390625 C-4.35247093 0 -4.35247093 0 0 0 Z " fill="#000000" transform="translate(163,158)"/>
</svg>
