<?xml version="1.0" encoding="UTF-8"?>
<svg version="1.1" xmlns="http://www.w3.org/2000/svg" width="512" height="512">
<path d="M0 0 C10.34841034 10.78131196 17.21632356 23.8235605 24.36328125 36.80859375 C27.79266037 43.03391148 31.34014891 49.18304025 34.9375 55.3125 C36.10430388 57.303305 37.27096949 59.29419105 38.4375 61.28515625 C39.02144531 62.2817627 39.60539062 63.27836914 40.20703125 64.30517578 C43.30437038 69.6082725 46.37113858 74.92894935 49.4375 80.25 C50.06003662 81.33015381 50.68257324 82.41030762 51.32397461 83.52319336 C52.58576826 85.71296334 53.84740534 87.90282355 55.10888672 90.09277344 C58.23680148 95.52159942 61.36858448 100.94819281 64.5 106.375 C65.75001879 108.54165583 67.00001878 110.7083225 68.25 112.875 C68.86875 113.9475 69.4875 115.02 70.125 116.125 C97 162.70833333 123.875 209.29166667 150.75 255.875 C151.67897095 257.4849585 151.67897095 257.4849585 152.62670898 259.12744141 C153.8716141 261.28562307 155.11592142 263.44414967 156.35961914 265.60302734 C159.55765711 271.15255149 162.76711171 276.69497789 165.99609375 282.2265625 C182.50057279 310.54313029 196.26337621 337.29836529 188.61645508 371.24755859 C184.84762825 385.40043622 178.14019872 397.96418349 169 409.375 C168.52175781 410.00535156 168.04351562 410.63570313 167.55078125 411.28515625 C154.71019251 427.43707159 132.37182082 438.70832496 112 441.375 C102.99369757 442.27327195 94.0485124 442.51830135 85.00282288 442.50198364 C83.64039631 442.50313889 82.27797006 442.50472911 80.91554445 442.50671089 C77.20941662 442.51084883 73.50331484 442.5088388 69.79718697 442.50572467 C65.78552019 442.50344801 61.77385768 442.50696141 57.76219177 442.50970459 C49.91792421 442.51413725 42.07366625 442.51319694 34.22939832 442.51029195 C27.85015571 442.5080279 21.47091579 442.50772973 15.0916729 442.50881577 C14.18160718 442.508969 13.27154146 442.50912223 12.33389799 442.50928011 C10.48474817 442.50959985 8.63559835 442.50992407 6.78644853 442.5102527 C-10.52906636 442.5131002 -27.84457595 442.50983201 -45.16008998 442.50445233 C-59.99564532 442.49998571 -74.83119284 442.50076047 -89.66674805 442.50537109 C-106.92136675 442.51073105 -124.17598081 442.51282478 -141.43060023 442.50975883 C-143.27301919 442.5094403 -145.11543816 442.50912593 -146.95785713 442.50881577 C-147.86420871 442.50866149 -148.77056029 442.50850721 -149.70437707 442.50834826 C-156.07041021 442.50748732 -162.43644039 442.50893689 -168.80247307 442.51129532 C-176.56854692 442.51410934 -184.33461068 442.51332138 -192.10068338 442.50801457 C-196.05785946 442.50539902 -200.01501874 442.50433585 -203.97219467 442.50766373 C-207.60356682 442.51067126 -211.23490681 442.50896068 -214.86627609 442.50368617 C-216.78296447 442.50206233 -218.69965512 442.50527961 -220.61634105 442.50874341 C-249.99076045 442.44323759 -275.6043701 435.60673013 -296.9609375 414.6015625 C-315.79617817 395.14760262 -322.56588695 370.51737869 -322.28125 344.00390625 C-322.05349166 335.95150997 -320.67177433 328.97725261 -318 321.375 C-317.649375 320.37339844 -317.29875 319.37179687 -316.9375 318.33984375 C-310.56385076 301.89671394 -300.77414425 286.71571981 -291.87353516 271.57373047 C-288.74405896 266.23070244 -285.65310493 260.8655775 -282.5625 255.5 C-281.94036621 254.42049072 -281.31823242 253.34098145 -280.67724609 252.22875977 C-279.41502167 250.0383525 -278.15297763 247.84784128 -276.89111328 245.65722656 C-273.76319852 240.22840058 -270.63141552 234.80180719 -267.5 229.375 C-266.24998121 227.20834417 -264.99998122 225.0416775 -263.75 222.875 C-256.25 209.875 -248.75 196.875 -241.25 183.875 C-240.63116943 182.80233887 -240.01233887 181.72967773 -239.37475586 180.62451172 C-238.12564482 178.45942929 -236.87645871 176.29439018 -235.62719727 174.12939453 C-232.48797691 168.68884294 -229.35009437 163.24752784 -226.21484375 157.8046875 C-220.19252671 147.35293801 -214.15330663 136.91200452 -208.0625 126.5 C-202.98724877 117.82237759 -197.97741233 109.10894432 -193 100.375 C-187.46290775 90.65897646 -181.87257166 80.97603793 -176.2253418 71.32348633 C-171.89454071 63.91833974 -167.59676233 56.49466011 -163.3125 49.0625 C-162.68456543 47.97493408 -162.05663086 46.88736816 -161.40966797 45.7668457 C-158.55442906 40.81938652 -155.70780412 35.86767907 -152.890625 30.8984375 C-137.91743467 4.56426617 -119.78276027 -15.78717247 -90 -24.625 C-57.22892407 -33.43494951 -24.23091191 -22.77121842 0 0 Z M-104 32.58984375 C-107.92112202 38.05031249 -111.19503094 43.87778961 -114.49853516 49.72558594 C-116.75528351 53.70773766 -119.04939262 57.66812815 -121.33959961 61.63110352 C-123.27620587 64.9828554 -125.20849272 68.33707374 -127.140625 71.69140625 C-130.73939779 77.93162063 -134.3649867 84.15584424 -138 90.375 C-144.74719493 101.92218726 -151.43339398 113.50402168 -158.10888672 125.09277344 C-161.23680148 130.52159942 -164.36858448 135.94819281 -167.5 141.375 C-168.75001879 143.54165583 -170.00001878 145.7083225 -171.25 147.875 C-183.75 169.54166667 -196.25 191.20833333 -208.75 212.875 C-209.36883057 213.94766113 -209.98766113 215.02032227 -210.62524414 216.12548828 C-211.87435518 218.29057071 -213.12354129 220.45560982 -214.37280273 222.62060547 C-217.51202309 228.06115706 -220.64990563 233.50247216 -223.78515625 238.9453125 C-229.83055225 249.43732209 -235.89126045 259.91972352 -242 270.375 C-248.76008135 281.94829747 -255.47933884 293.5443722 -262.15087891 305.16894531 C-263.9963349 308.36864536 -265.86177789 311.55601299 -267.73046875 314.7421875 C-268.90402207 316.76540681 -270.07721504 318.7888352 -271.25 320.8125 C-271.7869751 321.71685791 -272.3239502 322.62121582 -272.87719727 323.55297852 C-279.62459275 335.28119055 -281.96016437 347.46343439 -279.30859375 360.87109375 C-275.42061113 374.68237928 -267.6198671 386.40565696 -255.14155912 393.72927904 C-245.23320121 398.91982031 -235.45309012 399.95887202 -224.42663574 399.88293457 C-223.00161845 399.88755473 -221.57660595 399.89391508 -220.15160322 399.90184355 C-216.27239739 399.9184072 -212.39358958 399.91035034 -208.51438308 399.89789867 C-204.31661511 399.88879683 -200.11891254 399.9028432 -195.92115784 399.91381836 C-187.71221928 399.93155369 -179.50342748 399.92778591 -171.2944833 399.9161678 C-164.61964477 399.90711405 -157.9448472 399.90591785 -151.27000427 399.91026306 C-149.84202698 399.91118246 -149.84202698 399.91118246 -148.38520166 399.91212043 C-146.4509311 399.9133994 -144.51666055 399.91469626 -142.58239001 399.9160108 C-124.46808022 399.92740199 -106.35385155 399.91432585 -88.23955506 399.89280933 C-72.71516407 399.87493968 -57.19089274 399.8780442 -41.66650391 399.89648438 C-23.61458445 399.91791693 -5.56273601 399.92630349 12.48919439 399.91403532 C14.41613101 399.9127612 16.34306764 399.91150371 18.27000427 399.91026306 C19.21795822 399.90964596 20.16591216 399.90902886 21.14259198 399.90839306 C27.80516683 399.90494731 34.46769644 399.91075175 41.13026428 399.92018127 C49.25581074 399.93142917 57.38120274 399.92830274 65.50673163 399.9070583 C69.64816382 399.8965853 73.78933899 399.89236154 77.93076897 399.90565491 C81.72941093 399.91766307 85.5275601 399.91087944 89.32615799 399.8897447 C91.33504796 399.88323151 93.34397274 399.89613897 95.35282564 399.90997362 C110.56260051 399.77989158 123.17281985 395.00595014 134.3125 384.5625 C144.3837183 373.79103339 148.38394142 360.81680681 148.53125 346.21484375 C147.0722907 335.66957174 142.95655274 326.66708327 137.625 317.5625 C136.70352173 315.95362915 136.70352173 315.95362915 135.76342773 314.31225586 C133.85625096 310.99152739 131.93045829 307.6822384 130 304.375 C128.8318437 302.36208799 127.66386938 300.34907037 126.49609375 298.3359375 C124.19281897 294.37422628 121.88043929 290.41799087 119.5625 286.46484375 C115.8678669 280.15929581 112.21147319 273.83205564 108.5625 267.5 C107.93996338 266.41984619 107.31742676 265.33969238 106.67602539 264.22680664 C105.41423174 262.03703666 104.15259466 259.84717645 102.89111328 257.65722656 C99.76319852 252.22840058 96.63141552 246.80180719 93.5 241.375 C92.24998121 239.20834417 90.99998122 237.0416775 89.75 234.875 C89.13125 233.8025 88.5125 232.73 87.875 231.625 C82.25 221.875 82.25 221.875 80.37475586 218.62451172 C79.12564482 216.45942929 77.87645871 214.29439018 76.62719727 212.12939453 C73.48797691 206.68884294 70.35009437 201.24752784 67.21484375 195.8046875 C61.19252671 185.35293801 55.15330663 174.91200452 49.0625 164.5 C43.64078822 155.23000223 38.29795085 145.91668248 32.98077393 136.58654785 C27.77954871 127.4621716 22.51972122 118.37367226 17.21655273 109.30810547 C12.97382679 102.05288191 8.76014464 94.78139524 4.5625 87.5 C3.94487793 86.42903076 3.32725586 85.35806152 2.69091797 84.25463867 C-0.20876671 79.22447342 -3.10542099 74.19259268 -5.99659729 69.15753174 C-9.46131858 63.1238934 -12.93655458 57.09654542 -16.43017578 51.07958984 C-17.38437038 49.43564462 -18.33644928 47.79046574 -19.28466797 46.14306641 C-27.34842912 32.17503978 -36.4624548 21.55778493 -52.25 16.4375 C-71.31425484 12.04228275 -91.28020162 17.22863563 -104 32.58984375 Z " fill="#000000" transform="translate(322,48.625)"/>
<path d="M0 0 C6.62887055 5.07002656 9.13047905 11.78155746 10.3125 19.8125 C10.43963682 23.83621921 10.24064301 27.82150948 10.0168457 31.83935547 C9.96300626 32.97661009 9.90916681 34.11386471 9.85369587 35.28558159 C9.68473912 38.79523441 9.49938121 42.30376164 9.3125 45.8125 C9.21063748 47.87692527 9.10971595 49.94139725 9.00985718 52.00592041 C8.37170268 64.97862623 7.62830244 77.94606126 6.89331055 90.91357422 C6.62711762 95.62795856 6.3708824 100.34273388 6.12280273 105.05810547 C5.81951045 110.82078744 5.49899006 116.58226975 5.16616249 122.34331894 C5.04334406 124.51900051 4.92653451 126.69503044 4.8160305 128.87137222 C4.66104998 131.89998292 4.48390883 134.92654682 4.30151367 137.95361328 C4.24128525 139.27986221 4.24128525 139.27986221 4.17984009 140.63290405 C3.74159018 147.3158611 1.98106239 152.78812929 -2.50390625 157.87109375 C-3.08011719 158.32613281 -3.65632813 158.78117188 -4.25 159.25 C-4.82878906 159.72308594 -5.40757812 160.19617188 -6.00390625 160.68359375 C-10.88540687 163.95680414 -17.07596371 163.31098673 -22.6875 162.8125 C-27.81790215 161.42092033 -31.88123144 158.66719395 -34.64431763 154.07835388 C-39.68228904 143.13558167 -38.51701598 127.74935754 -39.1953125 115.93359375 C-39.32660846 113.7131995 -39.45827852 111.49282734 -39.59030151 109.2724762 C-39.86480136 104.63231338 -40.13491759 99.99192216 -40.40185547 95.35131836 C-40.74106452 89.46004338 -41.09096826 83.56946306 -41.44421577 77.67901516 C-41.7179228 73.095064 -41.98591612 68.51079167 -42.252285 63.92640877 C-42.37895223 61.75741684 -42.50728653 59.58852149 -42.63745499 57.41973686 C-43.26893785 46.84738015 -43.80305985 36.28843631 -43.87451172 25.69555664 C-43.88450258 24.88285781 -43.89449345 24.07015898 -43.90478706 23.23283291 C-43.89496321 14.91059491 -41.68784254 7.81284254 -35.6875 1.8125 C-24.76677818 -7.31925272 -11.87574655 -7.55961501 0 0 Z " fill="#000000" transform="translate(272.6875,170.1875)"/>
<path d="M0 0 C4.92661168 4.18607715 9.53458064 9.93093171 10.625 16.4375 C11.28207856 26.10413652 10.62408751 32.91295255 4.4375 40.625 C0.01280549 45.47243602 -5.88027215 48.93442037 -12.50390625 49.67578125 C-20.41648083 49.91709572 -26.49437252 47.85211265 -33.1875 43.6875 C-38.95012921 37.76022424 -42.30891142 31.07981227 -42.40625 22.76953125 C-41.93878905 14.29680149 -39.82332921 8.43689378 -33.5625 2.625 C-24.03609083 -5.13398631 -10.56525035 -7.31440409 0 0 Z " fill="#000000" transform="translate(271.375,354.5625)"/>
</svg>
