<?xml version="1.0" encoding="UTF-8"?>
<svg version="1.1" xmlns="http://www.w3.org/2000/svg" width="512" height="512">
<path d="M0 0 C1.22652283 -0.00794586 2.45304565 -0.01589172 3.71673584 -0.02407837 C7.25543434 -0.04170166 10.79332658 -0.03657397 14.33203125 -0.0234375 C15.39344833 -0.02936417 16.45486542 -0.03529083 17.54844666 -0.04139709 C27.06708386 0.04681043 34.4296115 1.79512276 41.4609375 8.40625 C46.28966241 13.91230736 48.29236144 20.1684938 48.34863281 27.40185547 C48.35809433 28.40694153 48.36755585 29.41202759 48.37730408 30.4475708 C48.38389793 32.07840607 48.38389793 32.07840607 48.390625 33.7421875 C48.39763931 34.87646179 48.40465363 36.01073608 48.41188049 37.17938232 C48.4294766 40.86962805 48.43574286 44.55971373 48.4375 48.25 C48.43817474 49.50351257 48.43884949 50.75702515 48.43954468 52.04852295 C48.42354503 70.6897607 47.9834181 88.91648509 45.1875 107.375 C45.01589355 108.5491748 44.84428711 109.72334961 44.66748047 110.93310547 C33.54994071 185.3381593 3.36158728 251.05680257 -48.32714844 305.78808594 C-49.88338928 307.45073641 -51.41647924 309.13244272 -52.9453125 310.8203125 C-57.72633692 316.08927256 -62.49450807 321.20562584 -67.96484375 325.77734375 C-69.96560498 327.50738888 -71.78492461 329.35044742 -73.625 331.25 C-78.36061512 336.04068042 -83.55337602 340.17698553 -88.8125 344.375 C-89.96055189 345.31268112 -91.10764876 346.25153244 -92.25390625 347.19140625 C-112.65363827 363.84044107 -134.66332548 377.87389261 -157.8125 390.375 C-162.9093413 386.10728672 -167.68502338 381.64316769 -172.37388611 376.93386841 C-173.46704072 375.84199543 -173.46704072 375.84199543 -174.58227926 374.72806442 C-177.00897342 372.30300949 -179.43209034 369.87441237 -181.85522461 367.44580078 C-183.59986244 365.70088072 -185.34472082 363.95618114 -187.08978271 362.21168518 C-190.8387736 358.46292157 -194.58623277 354.71263703 -198.33228874 350.96094131 C-203.74836958 345.53671182 -209.16723015 340.11526625 -214.58675952 334.69448255 C-223.38084361 325.89821322 -232.17269512 317.09971595 -240.96313477 308.29980469 C-249.4990681 299.75468357 -258.03605762 291.2106199 -266.57446289 282.66796875 C-267.10132204 282.14084687 -267.6281812 281.613725 -268.17100578 281.07062973 C-270.81427471 278.4260557 -273.45756436 275.78150236 -276.10086429 273.13695931 C-298.00795374 251.2195137 -319.91137908 229.29840977 -341.8125 207.375 C-340.55763243 204.83721628 -339.29971211 202.30102231 -338.04003906 199.765625 C-337.68898102 199.05486816 -337.33792297 198.34411133 -336.97622681 197.61181641 C-333.84236014 191.31425824 -330.33219755 185.31424228 -326.5625 179.375 C-325.91700195 178.35100098 -325.27150391 177.32700195 -324.60644531 176.27197266 C-319.50565859 168.27135475 -314.08023562 160.60873473 -308.21240234 153.15576172 C-306.82149058 151.38643657 -305.4500172 149.60349469 -304.08203125 147.81640625 C-295.31418159 136.42452087 -286.09396892 125.35840303 -275.7734375 115.3359375 C-273.92152967 113.48402967 -272.24227142 111.57003169 -270.5625 109.5625 C-265.96647339 104.21110791 -260.67750596 99.58434968 -255.45263672 94.86230469 C-253.91962155 93.4721397 -252.3987817 92.06858122 -250.87890625 90.6640625 C-245.05222199 85.29194226 -239.0925653 80.20848474 -232.8125 75.375 C-232.24966309 74.93961914 -231.68682617 74.50423828 -231.10693359 74.05566406 C-180.10617994 34.72880612 -122.39639443 12.66782936 -58.8125 3.375 C-57.72211426 3.20983887 -56.63172852 3.04467773 -55.50830078 2.87451172 C-37.057389 0.19753772 -18.61093595 0.06479016 0 0 Z M-170.40625 113.32421875 C-182.63605575 128.91722108 -189.05304057 147.50379566 -187.8125 167.375 C-185.09367372 188.80448901 -175.7382086 206.30796811 -159.25 220.5 C-147.68943386 229.3775064 -133.41985234 235.46204048 -118.8125 236.375 C-118.02875 236.42785156 -117.245 236.48070312 -116.4375 236.53515625 C-95.25982985 237.25998722 -75.49909226 229.06927356 -60.0390625 214.76171875 C-45.50133948 199.17829986 -38.09518504 180.07299332 -38.34228516 158.81225586 C-38.99052214 140.78814773 -45.70033494 124.77320575 -57.8125 111.375 C-58.43898438 110.66730469 -59.06546875 109.95960937 -59.7109375 109.23046875 C-72.58367959 95.49078688 -91.39237725 87.61064228 -110.03979492 86.97216797 C-133.59575582 86.65627917 -154.7514072 95.52390803 -170.40625 113.32421875 Z " fill="#000000" transform="translate(463.8125,-0.37500000000000006)"/>
<path d="M0 0 C2.81385753 1.282984 4.86902602 2.61877182 7.05344009 4.80175781 C7.63268116 5.37578339 8.21192223 5.94980896 8.80871606 6.54122925 C9.74841229 7.48761765 9.74841229 7.48761765 10.70709229 8.453125 C11.71677271 9.45812546 11.71677271 9.45812546 12.74685073 10.48342896 C15.00561953 12.73420766 17.2571573 14.99208321 19.50878906 17.25 C21.12470713 18.86320871 22.74105052 20.47599149 24.35778809 22.08837891 C28.75054076 26.4720002 33.13692709 30.86194091 37.52194691 35.2532959 C42.10472131 39.84112465 46.69236288 44.42408215 51.27923584 49.0078125 C59.47335394 57.19805671 67.66241259 65.39333889 75.84950754 73.59060287 C83.27868903 81.0287259 90.7131072 88.46158103 98.15136719 95.890625 C106.78522377 104.51378926 115.41572353 113.14028811 124.04127669 121.77175903 C128.60882342 126.34243095 133.17772763 130.91172385 137.7501297 135.47753906 C142.04571911 139.76737245 146.3364272 144.0620279 150.62333679 148.36053467 C152.20189714 149.94175064 153.78218246 151.52124659 155.36426544 153.09893799 C157.51442926 155.24368061 159.65840697 157.39441636 161.80084229 159.546875 C162.43622933 160.1778006 163.07161637 160.8087262 163.72625756 161.45877075 C168 165.7716997 168 165.7716997 168 168 C112.20771834 191.44273393 112.20771834 191.44273393 92.79835987 184.17568493 C85.6290221 180.81060002 80.57395198 176.28581247 75.03979492 170.68676758 C74.09180451 169.74556897 73.14275741 168.80543368 72.19274902 167.86627197 C69.63799108 165.33412828 67.09908778 162.78664224 64.56359649 160.23522401 C61.89491863 157.5537938 59.21395539 154.88468975 56.5349884 152.21354675 C52.04009826 147.72772616 47.55579101 143.23152896 43.07739258 138.72924805 C37.91636903 133.54101853 32.73758081 128.37104639 27.54919928 123.21018678 C23.07684106 118.76059564 18.61439656 114.30123819 14.15993577 109.83372992 C11.50740707 107.17344836 8.85171676 104.51655918 6.18700218 101.86847878 C3.68104349 99.37707671 1.18784542 96.87354271 -1.29645538 94.36054993 C-2.63378016 93.01357486 -3.9832785 91.67871953 -5.33323669 90.34440613 C-12.12507786 83.43413852 -17.72182642 76.06908232 -17.6875 66 C-17.2484362 44.75087111 -9.87888016 18.71932409 0 0 Z " fill="#000000" transform="translate(109,235)"/>
<path d="M0 0 C0.22509692 9.01638226 -0.35907689 17.94208283 -1.06201172 26.92382812 C-1.24904082 29.36249335 -1.41559078 31.80204252 -1.58203125 34.2421875 C-2.8524356 51.36999337 -6.33830149 63.34991573 -19.53564453 74.95501709 C-23.28102907 78.0630295 -27.25766494 80.71618029 -31.34375 83.3515625 C-32.65675835 84.21164917 -32.65675835 84.21164917 -33.99629211 85.08911133 C-36.82649601 86.94119209 -39.66310874 88.78318259 -42.5 90.625 C-45.45901829 92.55661002 -48.41646112 94.4906146 -51.37373352 96.42489624 C-53.36219728 97.72538416 -55.35120147 99.02504612 -57.34074402 100.32388306 C-63.58474055 104.40388463 -69.79984013 108.52375546 -75.98828125 112.6875 C-76.749664 113.19912689 -77.51104675 113.71075378 -78.29550171 114.23788452 C-81.15973808 116.16357211 -84.02348148 118.08986412 -86.87988281 120.02716064 C-88.79810079 121.32781484 -90.72086646 122.62148357 -92.64453125 123.9140625 C-93.71034424 124.6354541 -94.77615723 125.3568457 -95.87426758 126.10009766 C-104.13885671 131.12353221 -111.36585789 131.9234002 -121 131 C-127.45526219 129.30172734 -133.4436987 125.75494259 -137.24804688 120.16674805 C-141.80323578 111.89179188 -142.86480611 103.14643984 -144.25 93.9375 C-144.50634497 92.32463586 -144.76414831 90.71200281 -145.0234375 89.09960938 C-146.19110515 81.74449777 -147.21206861 74.40664606 -148 67 C-143.49800531 65.37867863 -138.9617608 64.24352063 -134.31274414 63.1496582 C-87.02509975 51.9251437 -43.22612538 30.51814134 -3.9453125 2.08203125 C-1 0 -1 0 0 0 Z " fill="#000000" transform="translate(374,381)"/>
<path d="M0 0 C-3.38936814 5.39829827 -6.81814882 10.75193751 -10.40820312 16.01904297 C-35.8635843 53.53815014 -55.68264036 95.74207221 -64.36669922 140.41333008 C-64.54088379 141.26822021 -64.71506836 142.12311035 -64.89453125 143.00390625 C-65.03737549 143.75486572 -65.18021973 144.5058252 -65.32739258 145.27954102 C-65.54935303 145.84729248 -65.77131348 146.41504395 -66 147 C-69.99673292 148.33224431 -73.36828454 147.55335507 -77.4375 146.92578125 C-78.2728125 146.80067673 -79.108125 146.6755722 -79.96875 146.54667664 C-81.74128163 146.27868565 -83.51324594 146.00691946 -85.28466797 145.73168945 C-87.96007337 145.31866382 -90.63785251 144.92521676 -93.31640625 144.53320312 C-119.14907724 140.63870472 -119.14907724 140.63870472 -127.25 130.0625 C-130.32744362 124.67697366 -131.3274862 119.93665837 -131.4375 113.75 C-131.47746094 112.52796875 -131.51742187 111.3059375 -131.55859375 110.046875 C-130.87149209 100.65023216 -123.61300697 92.12735558 -118.5 84.625 C-116.90685462 82.2678452 -115.31855132 79.90744285 -113.73046875 77.546875 C-113.29586838 76.90189056 -112.86126801 76.25690613 -112.41349792 75.59237671 C-108.43671886 69.67850259 -104.52156196 63.72492442 -100.61328125 57.765625 C-99.65088028 56.29934158 -99.65088028 56.29934158 -98.66903687 54.80343628 C-96.0758629 50.85201987 -93.4829798 46.90043342 -90.89648438 42.94464111 C-89.06591238 40.14573598 -87.23061613 37.34997822 -85.39453125 34.5546875 C-84.85339188 33.72430969 -84.3122525 32.89393188 -83.75471497 32.03839111 C-75.9241738 20.14073111 -67.55448223 7.63862056 -53 4 C-47.3558441 3.01731214 -41.70620434 2.47973887 -36 2 C-34.9598877 1.90976563 -33.91977539 1.81953125 -32.84814453 1.7265625 C-29.42031648 1.43301784 -25.99179091 1.15091438 -22.5625 0.875 C-21.47324219 0.78718262 -20.38398437 0.69936523 -19.26171875 0.60888672 C-12.82649544 0.12211478 -6.45318762 -0.11370461 0 0 Z " fill="#000000" transform="translate(131,138)"/>
<path d="M0 0 C9.58735826 7.7057272 15.21399805 16.61420757 18.08984375 28.6796875 C19.30384283 42.14660753 17.46816545 54.40504064 9.0625 65.3984375 C0.16002515 75.69357674 -10.65724291 81.63637103 -24.26953125 82.8984375 C-36.79871663 83.37725987 -49.98160906 79.03343867 -59.25390625 70.4609375 C-68.67692183 60.32675093 -73.31170516 48.25246801 -73.125 34.45703125 C-72.05629914 20.64164374 -65.89295806 10.04154949 -55.91015625 0.6796875 C-39.67852115 -11.80215144 -16.52922102 -12.01581709 0 0 Z " fill="#000000" transform="translate(377.91015625,124.3203125)"/>
<path d="M0 0 C4.09078595 3.42484405 5.38689527 5.9187505 6.5625 11.125 C7.00669512 16.281526 5.44053758 20.05054658 2.27330971 24.02431774 C-2.36992648 29.29734589 -7.22898598 34.31456721 -12.19775391 39.28051758 C-13.48934166 40.57714325 -13.48934166 40.57714325 -14.80702209 41.89996338 C-17.14584609 44.24660286 -19.48687642 46.59099168 -21.82928896 48.93404603 C-23.29546795 50.40093983 -24.76093097 51.86854506 -26.2261467 53.33640099 C-31.34518881 58.46466041 -36.46677241 63.59036541 -41.59082031 68.71362305 C-46.3573266 73.47952688 -51.11820658 78.25100073 -55.87652838 83.02507478 C-59.97505215 87.13667967 -64.07742777 91.24441428 -68.18281686 95.34916419 C-70.62933475 97.79542761 -73.07428833 100.24320502 -75.51536942 102.69489479 C-78.23333851 105.42435683 -80.95929646 108.14575249 -83.68603516 110.86645508 C-84.89089821 112.07974739 -84.89089821 112.07974739 -86.12010193 113.31755066 C-86.86571884 114.05897308 -87.61133575 114.80039551 -88.37954712 115.56428528 C-89.02216303 116.20744596 -89.66477894 116.85060663 -90.32686806 117.51325703 C-95.59582556 122.12177722 -99.58480207 122.7865594 -106.4296875 122.6015625 C-110.3335649 122.12547989 -112.46980391 120.9469168 -115.3125 118.25 C-117.9115635 114.58368821 -118.78678036 111.92493905 -118.875 107.4375 C-118.91753906 106.46167969 -118.96007812 105.48585938 -119.00390625 104.48046875 C-117.22469772 96.16744359 -109.07346861 89.72387832 -103.26538086 83.9440918 C-102.37520767 83.05041397 -101.48503448 82.15673615 -100.56788635 81.23597717 C-98.1469984 78.80604388 -95.71991484 76.38239213 -93.2913177 73.96016669 C-90.74153925 71.41548453 -88.19668106 68.86588901 -85.65101624 66.3170929 C-81.38022487 62.04267439 -77.10525945 57.77246466 -72.82788086 53.50463867 C-67.88894541 48.57660629 -62.95728405 43.64138236 -58.02929777 38.70240277 C-53.78653377 34.45055509 -49.53987523 30.20262675 -45.28995234 25.95793468 C-42.75648819 23.42758159 -40.22437829 20.89591302 -37.69578362 18.36069298 C-34.87964688 15.53769168 -32.05536319 12.72292953 -29.23022461 9.90893555 C-27.98092667 8.65356491 -27.98092667 8.65356491 -26.70639038 7.37283325 C-25.93408585 6.60616837 -25.16178131 5.83950348 -24.36607361 5.04960632 C-23.70003585 4.38432261 -23.03399809 3.71903891 -22.34777737 3.03359509 C-15.40660859 -3.04922917 -8.28527487 -4.37712635 0 0 Z " fill="#000000" transform="translate(118.3125,389.75)"/>
<path d="M0 0 C4.40101653 2.28200857 6.95038201 4.46926549 9 9 C10.43462328 13.96600368 9.80253063 18.21947447 8 23 C6.33014365 25.21204469 4.84405703 26.94250693 2.87939453 28.83349609 C2.35883484 29.35814453 1.83827515 29.88279297 1.30194092 30.42333984 C-0.40697719 32.13823044 -2.13628229 33.83076594 -3.8671875 35.5234375 C-5.0666065 36.7167342 -6.26484134 37.91122221 -7.46194458 39.10684204 C-9.96643986 41.60215898 -12.48039529 44.08736651 -15.00244141 46.56494141 C-18.23309708 49.73891176 -21.44603238 52.93009367 -24.65292168 56.12805748 C-27.12435296 58.59117304 -29.60139474 61.04857573 -32.0805397 63.50392532 C-33.26716727 64.67917202 -34.45287198 65.85535127 -35.63763046 67.03248215 C-37.29349442 68.67458164 -38.95591673 70.30972437 -40.62060547 71.94287109 C-41.10802216 72.42805206 -41.59543884 72.91323303 -42.09762573 73.41311646 C-46.17546378 77.38904449 -49.15641944 79.28592554 -54.875 79.375 C-59.68401017 79.26184682 -62.35414962 78.29862653 -66 75 C-70.1771257 70.49310122 -70.46363524 66.66373422 -70.53125 60.78125 C-69.4249452 54.98941899 -65.10128318 50.84659007 -61.06713867 46.77661133 C-60.59012009 46.29287552 -60.1131015 45.80913971 -59.62162781 45.31074524 C-58.05895985 43.72923482 -56.48900517 42.15522598 -54.91796875 40.58203125 C-53.81929799 39.47692511 -52.72077441 38.37167263 -51.62239075 37.26628113 C-49.32528919 34.95724274 -47.02413037 32.65233643 -44.72045898 30.34985352 C-41.77826173 27.40785973 -38.85008052 24.45233134 -35.92524242 21.49309254 C-33.66292183 19.20847526 -31.39150852 16.9330663 -29.11748695 14.66010094 C-28.03426223 13.57452617 -26.95425555 12.48572988 -25.87764549 11.39359474 C-24.36817319 9.86439804 -22.84639292 8.34854484 -21.32104492 6.83520508 C-20.46040939 5.97171951 -19.59977386 5.10823395 -18.71305847 4.21858215 C-12.86681782 -0.562135 -7.30502364 -1.95598994 0 0 Z " fill="#000000" transform="translate(160,433)"/>
<path d="M0 0 C3.25243169 3.43828493 5.07544778 6.73978108 5.28515625 11.5546875 C4.74644566 19.35942148 0.63444167 24.11439 -4.79296875 29.55175781 C-5.51572495 30.27977097 -5.51572495 30.27977097 -6.25308228 31.02249146 C-7.8304313 32.60856812 -9.41489318 34.18730428 -11 35.765625 C-12.1060051 36.87297889 -13.2117133 37.9806294 -14.31713867 39.08856201 C-16.62713598 41.40149805 -18.94068707 43.71080271 -21.25683594 46.01757812 C-24.22270686 48.97202851 -27.17947214 51.93540369 -30.13365173 54.90153885 C-32.41199895 57.18711565 -34.6950913 59.46790447 -36.97964478 61.74727631 C-38.0719374 62.83823687 -39.16275209 63.93067929 -40.25204468 65.02463531 C-41.77391596 66.55159277 -43.30206367 68.07198094 -44.83203125 69.59082031 C-46.13297729 70.88937958 -46.13297729 70.88937958 -47.46020508 72.21417236 C-52.18823951 76.43174101 -55.92788202 76.75694592 -62.12109375 76.625 C-67.29080222 76.02474357 -69.82220445 73.40703719 -73.1875 69.6875 C-75.33657991 65.22402634 -75.82208976 61.18228591 -74.8125 56.3125 C-72.19549328 52.00597781 -69.24148187 48.47332697 -65.71191406 44.88964844 C-65.21699463 44.38479919 -64.7220752 43.87994995 -64.2121582 43.35980225 C-62.58963545 41.70830924 -60.95963757 40.06448473 -59.328125 38.421875 C-58.76808525 37.8561805 -58.2080455 37.29048599 -57.63103485 36.70764923 C-54.67057024 33.71731914 -51.70448898 30.73270129 -48.73339844 27.75292969 C-45.67563379 24.6841776 -42.63688084 21.59729868 -39.60217667 18.50576401 C-37.25472661 16.12098 -34.8938827 13.74980208 -32.52922821 11.38208771 C-31.40316984 10.24999924 -30.28208746 9.11293749 -29.1662674 7.97075653 C-27.60165383 6.37182832 -26.01896076 4.79313176 -24.43066406 3.21777344 C-23.53671936 2.31653748 -22.64277466 1.41530151 -21.72174072 0.48675537 C-14.64563192 -4.80165801 -7.3332589 -4.39995534 0 0 Z " fill="#000000" transform="translate(74.8125,345.6875)"/>
</svg>
